<svg width="155" height="49" viewBox="0 0 155 49" fill="none" xmlns="http://www.w3.org/2000/svg">
<path d="M32.0766 34.225C32.4266 32.475 32.6016 30.025 32.6016 26.875C32.6016 23.7 32.5891 21.825 32.5641 21.25C32.5391 20.675 32.3641 20.2125 32.0391 19.8625C31.7141 19.5125 31.4266 19.3125 31.1766 19.2625C30.9516 19.2125 30.6266 19.1875 30.2016 19.1875C29.7766 19.1875 29.3641 19.3875 28.9641 19.7875C28.5641 20.1625 28.3266 20.55 28.2516 20.95L28.1016 21.55C28.0266 22.3 27.9891 23.9625 27.9891 26.5375C27.9891 29.1125 28.0391 30.7375 28.1391 31.4125C28.2641 32.0625 28.3266 32.5 28.3266 32.725C28.3266 32.95 28.2266 33.175 28.0266 33.4C27.1766 34.3 25.9766 34.75 24.4266 34.75C23.8766 34.75 23.6016 34.5875 23.6016 34.2625C24.1016 31.2625 24.3516 27.4375 24.3516 22.7875C24.3516 21.0625 24.3141 19.9 24.2391 19.3L24.0891 18.1C24.0641 17.825 24.0141 17.525 23.9391 17.2C23.9391 16.9 24.3266 16.75 25.1016 16.75C26.2516 16.75 27.0141 17.175 27.3891 18.025C27.4141 18.125 27.4641 18.175 27.5391 18.175C27.6141 18.175 27.7891 18.075 28.0641 17.875C28.8891 17.225 30.0016 16.9 31.4016 16.9C32.2016 16.9 32.9891 17.05 33.7641 17.35C34.5391 17.65 35.0766 18.05 35.3766 18.55C35.4016 18.6 35.4391 18.625 35.4891 18.625C35.5391 18.625 35.6141 18.575 35.7141 18.475C36.7641 17.425 38.1266 16.9 39.8016 16.9C42.0266 16.9 43.5516 17.7 44.3766 19.3C44.6766 19.925 44.8266 20.7125 44.8266 21.6625C44.8266 22.6125 44.7516 23.9625 44.6016 25.7125C44.4516 27.4625 44.3766 28.8 44.3766 29.725C44.3766 30.65 44.4641 31.4875 44.6391 32.2375C44.8391 32.9875 45.0266 33.525 45.2016 33.85C45.4016 34.175 45.5016 34.3625 45.5016 34.4125C45.5016 34.7375 45.1516 34.9 44.4516 34.9C42.7266 34.9 41.5266 34.55 40.8516 33.85C40.1766 33.15 39.8391 32.2375 39.8391 31.1125C39.8391 29.9625 40.0641 28.425 40.5141 26.5C40.9891 24.55 41.2266 23.0875 41.2266 22.1125C41.2266 20.1375 40.4266 19.15 38.8266 19.15C38.1516 19.15 37.6141 19.35 37.2141 19.75C36.8141 20.15 36.5766 20.55 36.5016 20.95L36.4266 21.55C36.3266 22.7 36.2766 24.0875 36.2766 25.7125C36.2766 27.3375 36.3016 28.6125 36.3516 29.5375C36.4016 30.4375 36.4516 31.15 36.5016 31.675C36.5516 32.175 36.5766 32.475 36.5766 32.575C36.5766 33.275 36.1391 33.8125 35.2641 34.1875C34.3891 34.5625 33.5391 34.75 32.7141 34.75C32.2891 34.75 32.0766 34.575 32.0766 34.225ZM53.3836 44.3875C53.3836 44.6875 53.2336 44.8375 52.9336 44.8375H52.8961C52.0711 44.8375 51.1336 44.55 50.0836 43.975C49.0586 43.4 48.5461 42.7375 48.5461 41.9875C48.5461 41.2375 49.0211 39.925 49.9711 38.05C50.9211 36.2 51.3961 34.9625 51.3961 34.3375C51.3961 33.6625 51.0711 32.45 50.4211 30.7C49.5961 28.425 48.9336 26.575 48.4336 25.15C47.9586 23.725 47.4336 22.475 46.8586 21.4C46.3086 20.3 45.9086 19.65 45.6586 19.45L45.2836 19.1875C45.0086 19.0375 44.8711 18.875 44.8711 18.7C44.8711 18.35 45.4086 18 46.4836 17.65C47.5836 17.275 48.5461 17.0875 49.3711 17.0875C49.7461 17.0875 50.0586 17.3875 50.3086 17.9875C50.7586 19.1625 51.2461 20.7875 51.7711 22.8625C53.0461 27.1125 53.8461 29.2375 54.1711 29.2375C54.3961 29.2375 54.8461 28.3625 55.5211 26.6125C56.2211 24.8625 56.5711 23.45 56.5711 22.375C56.5711 20.5 56.0211 19.4 54.9211 19.075C54.6711 19.025 54.5461 18.9 54.5461 18.7C54.5461 18.25 55.1336 17.825 56.3086 17.425C57.4836 17 58.5461 16.7875 59.4961 16.7875C60.3211 16.7875 60.7336 17.325 60.7336 18.4C60.7336 19.225 60.5586 20.1875 60.2086 21.2875C59.8586 22.3875 59.5336 23.2625 59.2336 23.9125C58.9336 24.5375 58.1836 26.0125 56.9836 28.3375C55.8086 30.6375 54.8336 32.6625 54.0586 34.4125C53.2086 36.5125 52.7836 38.65 52.7836 40.825C52.7836 41.975 52.8836 42.8375 53.0836 43.4125C53.2836 43.9875 53.3836 44.3125 53.3836 44.3875ZM68.8963 21.0625L68.0338 21.2875C67.5838 21.2875 67.3588 20.875 67.3588 20.05C67.3588 19.2 67.6588 18.525 68.2588 18.025C68.8838 17.5 69.6713 17.2375 70.6213 17.2375C71.1463 17.2375 71.7088 17.4 72.3088 17.725C72.9088 18.025 73.4088 18.4125 73.8088 18.8875C74.2088 19.3375 74.5588 20.0625 74.8588 21.0625C75.1838 22.0375 75.3463 23.1875 75.3463 24.5125C75.3463 27.5625 74.5213 30.0375 72.8713 31.9375C71.2463 33.8375 68.8838 34.7875 65.7838 34.7875C64.8838 34.7875 63.9963 34.7 63.1213 34.525L62.7463 34.45C62.4213 34.35 62.2338 34.175 62.1838 33.925C62.1088 33.4 62.0713 32.1625 62.0713 30.2125L62.2963 18.0625C62.2963 16.1875 62.2463 14.75 62.1463 13.75L62.0713 13.225C62.0213 12.525 61.8713 11.925 61.6213 11.425C61.3963 10.925 61.1713 10.6 60.9463 10.45L60.6463 10.2625C60.4713 10.1625 60.3838 10.05 60.3838 9.925C60.3838 9.55 61.0088 9.1125 62.2588 8.6125C63.5088 8.0875 64.4213 7.825 64.9963 7.825C65.5713 7.825 65.8713 7.975 65.8963 8.275C66.0713 9.8 66.1588 11.975 66.1588 14.8L65.9713 23.8C65.9713 27.725 66.0838 30.4375 66.3088 31.9375C66.3338 32.2875 66.7213 32.4625 67.4713 32.4625C68.2463 32.4625 68.9088 32.25 69.4588 31.825C70.0088 31.4 70.4213 30.8375 70.6963 30.1375C71.1963 28.8625 71.4463 27.45 71.4463 25.9C71.4463 25.175 71.3463 24.3875 71.1463 23.5375C70.7963 21.8875 70.0463 21.0625 68.8963 21.0625ZM80.7067 19.8625C80.0567 19.8875 79.5817 19.9125 79.2817 19.9375C79.0067 19.9375 78.8692 19.8625 78.8692 19.7125C78.8692 19.5625 78.9442 19.4125 79.0942 19.2625C80.6942 17.7875 83.3942 17.05 87.1942 17.05C88.4942 17.05 89.5192 17.1625 90.2692 17.3875L90.6442 17.5C90.9442 17.625 91.0942 17.7625 91.0942 17.9125C91.0942 18.0375 91.0067 18.1375 90.8317 18.2125C90.1567 18.4125 89.5067 18.7375 88.8817 19.1875C88.2567 19.6125 87.9442 19.9125 87.9442 20.0875L88.1692 20.35C88.9692 20.8 89.5817 21.5125 90.0067 22.4875C90.4567 23.4625 90.7067 24.325 90.7567 25.075L90.8317 26.2375C90.8317 28.7125 90.1442 30.75 88.7692 32.35C87.3942 33.95 85.5192 34.75 83.1442 34.75C81.9442 34.75 80.9067 34.5375 80.0317 34.1125C79.1567 33.6875 78.5067 33.2125 78.0817 32.6875C77.6817 32.1375 77.3567 31.525 77.1067 30.85C76.8067 29.925 76.6567 28.975 76.6567 28C76.6567 27 76.8192 26 77.1442 25C77.4942 24 77.8817 23.2625 78.3067 22.7875C78.7567 22.3125 79.2567 21.925 79.8067 21.625C80.5067 21.25 81.0692 21.0625 81.4942 21.0625C81.9192 21.0625 82.1317 21.15 82.1317 21.325L81.9067 21.7C81.3567 22.35 80.9567 23.2 80.7067 24.25C80.4817 25.3 80.3692 26.2375 80.3692 27.0625C80.3692 27.8625 80.4692 28.6625 80.6692 29.4625C80.8692 30.2625 81.0942 30.8625 81.3442 31.2625C81.5942 31.6375 81.8817 31.925 82.2067 32.125C82.6817 32.425 83.1817 32.575 83.7067 32.575C84.2317 32.575 84.7442 32.375 85.2442 31.975C85.7442 31.55 86.1067 31 86.3317 30.325C86.7817 29.075 87.0067 27.7875 87.0067 26.4625C87.0067 24.3625 86.4692 22.7375 85.3942 21.5875C84.3442 20.4375 82.7817 19.8625 80.7067 19.8625ZM96.4538 19.8625C95.8038 19.8875 95.3288 19.9125 95.0288 19.9375C94.7538 19.9375 94.6163 19.8625 94.6163 19.7125C94.6163 19.5625 94.6913 19.4125 94.8413 19.2625C96.4413 17.7875 99.1413 17.05 102.941 17.05C104.241 17.05 105.266 17.1625 106.016 17.3875L106.391 17.5C106.691 17.625 106.841 17.7625 106.841 17.9125C106.841 18.0375 106.754 18.1375 106.579 18.2125C105.904 18.4125 105.254 18.7375 104.629 19.1875C104.004 19.6125 103.691 19.9125 103.691 20.0875L103.916 20.35C104.716 20.8 105.329 21.5125 105.754 22.4875C106.204 23.4625 106.454 24.325 106.504 25.075L106.579 26.2375C106.579 28.7125 105.891 30.75 104.516 32.35C103.141 33.95 101.266 34.75 98.8913 34.75C97.6913 34.75 96.6538 34.5375 95.7788 34.1125C94.9038 33.6875 94.2538 33.2125 93.8288 32.6875C93.4288 32.1375 93.1038 31.525 92.8538 30.85C92.5538 29.925 92.4038 28.975 92.4038 28C92.4038 27 92.5663 26 92.8913 25C93.2413 24 93.6288 23.2625 94.0538 22.7875C94.5038 22.3125 95.0038 21.925 95.5538 21.625C96.2538 21.25 96.8163 21.0625 97.2413 21.0625C97.6663 21.0625 97.8788 21.15 97.8788 21.325L97.6538 21.7C97.1038 22.35 96.7038 23.2 96.4538 24.25C96.2288 25.3 96.1163 26.2375 96.1163 27.0625C96.1163 27.8625 96.2163 28.6625 96.4163 29.4625C96.6163 30.2625 96.8413 30.8625 97.0913 31.2625C97.3413 31.6375 97.6288 31.925 97.9538 32.125C98.4288 32.425 98.9288 32.575 99.4538 32.575C99.9788 32.575 100.491 32.375 100.991 31.975C101.491 31.55 101.854 31 102.079 30.325C102.529 29.075 102.754 27.7875 102.754 26.4625C102.754 24.3625 102.216 22.7375 101.141 21.5875C100.091 20.4375 98.5288 19.8625 96.4538 19.8625ZM116.26 21.85C116.16 21.95 116.11 22.0625 116.11 22.1875C116.11 22.2875 116.335 22.3875 116.785 22.4875C117.26 22.5875 117.772 22.8625 118.322 23.3125C118.872 23.7625 119.285 24.25 119.56 24.775C120.085 25.8 120.372 26.7 120.422 27.475L120.46 27.9625C120.585 30.8875 121.122 32.8875 122.072 33.9625C122.197 34.1375 122.26 34.2625 122.26 34.3375C122.26 34.6125 121.91 34.75 121.21 34.75C119.11 34.75 117.772 34.3125 117.197 33.4375C116.897 33.0875 116.747 32 116.747 30.175V29.2375C116.747 26.9125 116.46 25.3 115.885 24.4C115.585 23.975 115.21 23.7625 114.76 23.7625C114.335 23.7625 113.885 24.15 113.41 24.925C112.935 25.675 112.697 26.3125 112.697 26.8375C112.697 28.9375 112.747 30.4 112.847 31.225C112.947 32.05 112.997 32.475 112.997 32.5C112.997 33.225 112.497 33.7875 111.497 34.1875C110.522 34.5875 109.597 34.7875 108.722 34.7875C108.397 34.7875 108.235 34.5875 108.235 34.1875V34.0375C108.835 30.9625 109.135 26.1125 109.135 19.4875C109.135 17.3125 109.085 15.475 108.985 13.975L108.91 13.225C108.86 12.525 108.71 11.925 108.46 11.425C108.235 10.925 108.01 10.6 107.785 10.45L107.485 10.2625C107.31 10.1625 107.222 10.05 107.222 9.925C107.222 9.525 107.822 9.075 109.022 8.575C110.222 8.075 111.26 7.825 112.135 7.825C112.535 7.85 112.747 8 112.772 8.275C112.897 9.275 112.96 11.3375 112.96 14.4625C112.96 17.5625 112.885 20.0375 112.735 21.8875C112.735 22.1875 112.785 22.3375 112.885 22.3375C112.985 22.3375 113.135 22.2 113.335 21.925C113.56 21.625 113.935 21.1625 114.46 20.5375C115.01 19.9125 115.735 19.1875 116.635 18.3625C117.56 17.5375 118.297 17.125 118.847 17.125C119.422 17.125 119.985 17.2625 120.535 17.5375C121.085 17.8125 121.36 18.075 121.36 18.325L120.947 18.5875C119.522 19.1125 117.96 20.2 116.26 21.85ZM134.355 28.8625C134.355 29.9375 134.142 30.875 133.717 31.675C133.317 32.475 132.855 33.0625 132.33 33.4375C131.805 33.8125 131.18 34.1125 130.455 34.3375C129.505 34.6375 128.642 34.7875 127.867 34.7875C126.242 34.7875 124.892 34.475 123.817 33.85C122.742 33.2 122.205 32.175 122.205 30.775C122.205 29.95 122.43 29.275 122.88 28.75C123.58 27.975 124.417 27.5875 125.392 27.5875C125.692 27.5875 125.842 27.725 125.842 28C125.842 28.025 125.78 28.225 125.655 28.6C125.555 28.95 125.505 29.4 125.505 29.95C125.505 30.5 125.717 30.9875 126.142 31.4125C126.592 31.8375 127.13 32.05 127.755 32.05C128.38 32.05 128.88 31.95 129.255 31.75C129.63 31.525 129.892 31.25 130.042 30.925C130.267 30.475 130.38 30.05 130.38 29.65C130.38 28.925 130.017 28.3 129.292 27.775C128.567 27.25 127.767 26.8375 126.892 26.5375C126.017 26.2375 125.217 25.7375 124.492 25.0375C123.767 24.3375 123.405 23.4625 123.405 22.4125C123.405 20.6125 123.967 19.2625 125.092 18.3625C126.242 17.4625 127.792 17.0125 129.742 17.0125C130.592 17.0125 131.48 17.1375 132.405 17.3875C133.355 17.6125 133.83 18.0125 133.83 18.5875C133.83 19.1375 133.73 19.65 133.53 20.125C133.355 20.6 133.13 20.8375 132.855 20.8375C132.705 20.8375 132.605 20.7875 132.555 20.6875C132.505 20.5625 132.417 20.425 132.292 20.275C132.167 20.125 131.867 19.9375 131.392 19.7125C130.917 19.4625 130.505 19.3375 130.155 19.3375C129.83 19.3375 129.605 19.35 129.48 19.375C129.38 19.375 129.192 19.4125 128.917 19.4875C128.642 19.5375 128.392 19.625 128.167 19.75C127.592 20.075 127.305 20.55 127.305 21.175C127.305 21.575 127.392 21.875 127.567 22.075C127.742 22.25 127.88 22.3875 127.98 22.4875C128.08 22.5875 128.255 22.7125 128.505 22.8625C128.755 22.9875 128.93 23.075 129.03 23.125C129.13 23.175 129.355 23.2875 129.705 23.4625C130.055 23.6125 130.28 23.7125 130.38 23.7625C133.03 25.0125 134.355 26.7125 134.355 28.8625Z" fill="#E1E1E6"/>
<path d="M147.507 12.375L145.652 19.5678C145.316 20.8709 145.852 22.2427 146.982 22.9731L148.301 23.8251C149.063 24.3176 149.063 25.4324 148.301 25.9249L146.982 26.7769C145.852 27.5073 145.316 28.8791 145.652 30.1822L147.507 37.375H152.344L150.488 30.1822C150.152 28.8791 150.688 27.5073 151.818 26.7769L153.137 25.9249C153.899 25.4324 153.899 24.3176 153.137 23.8251L151.818 22.9731C150.688 22.2427 150.152 20.8709 150.488 19.5678L152.344 12.375H147.507Z" fill="#711DDC"/>
<path d="M7.25447 12.375L9.10976 19.5678C9.44586 20.8709 8.91005 22.2427 7.77978 22.9731L6.46115 23.8251C5.69901 24.3176 5.69901 25.4324 6.46115 25.9249L7.77978 26.7769C8.91005 27.5073 9.44586 28.8791 9.10976 30.1822L7.25447 37.375H2.41816L4.27345 30.1822C4.60955 28.8791 4.07374 27.5073 2.94347 26.7769L1.62484 25.9249C0.8627 25.4324 0.862701 24.3176 1.62484 23.8251L2.94348 22.9731C4.07374 22.2427 4.60955 20.8709 4.27345 19.5678L2.41816 12.375H7.25447Z" fill="#711DDC"/>
</svg>
